{
    "accessors": {
        "accessor_21": {
            "bufferView": "bufferView_29",
            "byteOffset": 0,
            "byteStride": 0,
            "componentType": 5123,
            "count": 720,
            "type": "SCALAR"
        },
        "accessor_23": {
            "bufferView": "bufferView_30",
            "byteOffset": 0,
            "byteStride": 12,
            "componentType": 5126,
            "count": 720,
            "max": [
                2.26843,
                3.75544,
                3.64304
            ],
            "min": [
                -3.97969,
                -7.49172,
                -4.15956
            ],
            "type": "VEC3"
        },
        "accessor_25": {
            "bufferView": "bufferView_30",
            "byteOffset": 8640,
            "byteStride": 12,
            "componentType": 5126,
            "count": 720,
            "max": [
                0.992441,
                0.982874,
                0.978144
            ],
            "min": [
                -0.994118,
                -0.994256,
                -0.949942
            ],
            "type": "VEC3"
        },
        "accessor_27": {
            "bufferView": "bufferView_30",
            "byteOffset": 17280,
            "byteStride": 8,
            "componentType": 5126,
            "count": 720,
            "max": [
                0.99,
                0.99
            ],
            "min": [
                0.00999999,
                0.00999999
            ],
            "type": "VEC2"
        }
    },
    "animations": {},
    "asset": {
        "generator": "collada2gltf@d78daf1e7950e6c22fe6bec1d07965e8a302e90d",
        "premultipliedAlpha": true,
        "profile": {
            "api": "WebGL",
            "version": "1.0.2"
        },
        "version": 1
    },
    "bufferViews": {
        "bufferView_29": {
            "buffer": "2M6C",
            "byteLength": 1440,
            "byteOffset": 0,
            "target": 34963
        },
        "bufferView_30": {
            "buffer": "2M6C",
            "byteLength": 23040,
            "byteOffset": 1440,
            "target": 34962
        }
    },
    "buffers": {
        "2M6C": {
            "byteLength": 24480,
            "type": "arraybuffer",
            "uri": "2M6C.bin"
        }
    },
	"extensionsUsed": ["KHR_materials_common"],
	"images": {
		"2M6C_png": {
			"uri": "textures/2M6C.png"
		}
	},
    "materials": {
        "Material_001-effect": {
			"extensions": {
				"KHR_materials_common": {
            		"technique": "CONSTANT",
		            "values": {
		                "diffuse": "2M6C_tex"
					}
		        }
			}
		}
    },
    "meshes": {
        "vmd_mol6_rep0-mesh": {
            "name": "vmd_mol6_rep0",
            "primitives": [
                {
                    "attributes": {
                        "NORMAL": "accessor_25",
                        "POSITION": "accessor_23",
                        "TEXCOORD_0": "accessor_27"
                    },
                    "indices": "accessor_21",
                    "material": "Material_001-effect",
                    "mode": 4
                }
            ]
        }
    },
    "nodes": {
        "node_1": {
            "children": [
                "vmd_mol6_rep0"
            ],
            "matrix": [
                1,
                0,
                0,
                0,
                0,
                0,
                -1,
                0,
                0,
                1,
                0,
                0,
                0,
                0,
                0,
                1
            ],
            "name": "Y_UP_Transform"
        },
        "vmd_mol6_rep0": {
            "children": [],
            "matrix": [
                1,
                0,
                0,
                0,
                0,
                1,
                0,
                0,
                0,
                0,
                1,
                0,
                0,
                0,
                0,
                1
            ],
            "meshes": [
                "vmd_mol6_rep0-mesh"
            ],
            "name": "vmd_mol6_rep0"
        }
    },
    "programs": {},
    "scene": "defaultScene",
    "scenes": {
        "defaultScene": {
            "nodes": [
                "node_1"
            ]
        }
    },
    "shaders": {},
    "skins": {},
    "techniques": {},
	"textures": {
		"2M6C_tex": {
			"format": 6403,
			"internalFormat": 33317,
			"target": 3553,
			"sampler": "sampler_0",
			"type": 5121,
			"source": "2M6C_png"
		}
	}
}
