{
    "accessors": {
        "accessor_102": {
            "bufferView": "bufferView_164",
            "byteOffset": 38898,
            "byteStride": 0,
            "componentType": 5123,
            "count": 7740,
            "type": "SCALAR"
        },
        "accessor_104": {
            "bufferView": "bufferView_165",
            "byteOffset": 622368,
            "byteStride": 12,
            "componentType": 5126,
            "count": 7740,
            "max": [
                27.3159,
                22.0714,
                25.5373
            ],
            "min": [
                -27.9236,
                -40.0829,
                -23.3435
            ],
            "type": "VEC3"
        },
        "accessor_106": {
            "bufferView": "bufferView_165",
            "byteOffset": 715248,
            "byteStride": 12,
            "componentType": 5126,
            "count": 7740,
            "max": [
                0.999461,
                0.997742,
                0.99971
            ],
            "min": [
                -0.999255,
                -0.999454,
                -0.999273
            ],
            "type": "VEC3"
        },
        "accessor_108": {
            "bufferView": "bufferView_165",
            "byteOffset": 808128,
            "byteStride": 8,
            "componentType": 5126,
            "count": 7740,
            "max": [
                0.997996,
                0.997996
            ],
            "min": [
                0.00200397,
                0.00200403
            ],
            "type": "VEC2"
        },
        "accessor_129": {
            "bufferView": "bufferView_164",
            "byteOffset": 54378,
            "byteStride": 0,
            "componentType": 5123,
            "count": 711,
            "type": "SCALAR"
        },
        "accessor_131": {
            "bufferView": "bufferView_165",
            "byteOffset": 870048,
            "byteStride": 12,
            "componentType": 5126,
            "count": 711,
            "max": [
                22.3155,
                19.1058,
                19.3119
            ],
            "min": [
                -0.553632,
                -34.4962,
                0.751848
            ],
            "type": "VEC3"
        },
        "accessor_133": {
            "bufferView": "bufferView_165",
            "byteOffset": 878580,
            "byteStride": 12,
            "componentType": 5126,
            "count": 711,
            "max": [
                0.989574,
                0.950958,
                0.9721
            ],
            "min": [
                -0.985318,
                -0.939399,
                -0.99927
            ],
            "type": "VEC3"
        },
        "accessor_135": {
            "bufferView": "bufferView_165",
            "byteOffset": 887112,
            "byteStride": 8,
            "componentType": 5126,
            "count": 711,
            "max": [
                0.997996,
                0.997996
            ],
            "min": [
                0.00200397,
                0.00200403
            ],
            "type": "VEC2"
        },
        "accessor_156": {
            "bufferView": "bufferView_164",
            "byteOffset": 55800,
            "byteStride": 0,
            "componentType": 5123,
            "count": 6390,
            "type": "SCALAR"
        },
        "accessor_158": {
            "bufferView": "bufferView_165",
            "byteOffset": 892800,
            "byteStride": 12,
            "componentType": 5126,
            "count": 6390,
            "max": [
                15.5524,
                30.249,
                18.4983
            ],
            "min": [
                -17.4719,
                4.46975,
                -28.828
            ],
            "type": "VEC3"
        },
        "accessor_160": {
            "bufferView": "bufferView_165",
            "byteOffset": 969480,
            "byteStride": 12,
            "componentType": 5126,
            "count": 6390,
            "max": [
                0.999459,
                1,
                0.987848
            ],
            "min": [
                -0.999928,
                -0.999702,
                -0.997912
            ],
            "type": "VEC3"
        },
        "accessor_162": {
            "bufferView": "bufferView_165",
            "byteOffset": 1046160,
            "byteStride": 8,
            "componentType": 5126,
            "count": 6390,
            "max": [
                0.997996,
                0.997996
            ],
            "min": [
                0.00200397,
                0.00200403
            ],
            "type": "VEC2"
        },
        "accessor_21": {
            "bufferView": "bufferView_164",
            "byteOffset": 0,
            "byteStride": 0,
            "componentType": 5123,
            "count": 4203,
            "type": "SCALAR"
        },
        "accessor_23": {
            "bufferView": "bufferView_165",
            "byteOffset": 0,
            "byteStride": 12,
            "componentType": 5126,
            "count": 4203,
            "max": [
                20.5633,
                29.9296,
                23.9502
            ],
            "min": [
                -24.8331,
                -28.5079,
                -27.7572
            ],
            "type": "VEC3"
        },
        "accessor_25": {
            "bufferView": "bufferView_165",
            "byteOffset": 50436,
            "byteStride": 12,
            "componentType": 5126,
            "count": 4203,
            "max": [
                0.993155,
                0.999784,
                0.999272
            ],
            "min": [
                -0.991974,
                -0.999151,
                -0.999275
            ],
            "type": "VEC3"
        },
        "accessor_27": {
            "bufferView": "bufferView_165",
            "byteOffset": 100872,
            "byteStride": 8,
            "componentType": 5126,
            "count": 4203,
            "max": [
                0.997996,
                0.997996
            ],
            "min": [
                0.00200397,
                0.00200403
            ],
            "type": "VEC2"
        },
        "accessor_48": {
            "bufferView": "bufferView_164",
            "byteOffset": 8406,
            "byteStride": 0,
            "componentType": 5123,
            "count": 333,
            "type": "SCALAR"
        },
        "accessor_50": {
            "bufferView": "bufferView_165",
            "byteOffset": 134496,
            "byteStride": 12,
            "componentType": 5126,
            "count": 333,
            "max": [
                22.3155,
                -1.36717,
                14.5485
            ],
            "min": [
                -10.8879,
                -30.6007,
                -14.3026
            ],
            "type": "VEC3"
        },
        "accessor_52": {
            "bufferView": "bufferView_165",
            "byteOffset": 138492,
            "byteStride": 12,
            "componentType": 5126,
            "count": 333,
            "max": [
                0.98056,
                0.962867,
                0.996589
            ],
            "min": [
                -0.941531,
                -0.873782,
                -0.882111
            ],
            "type": "VEC3"
        },
        "accessor_54": {
            "bufferView": "bufferView_165",
            "byteOffset": 142488,
            "byteStride": 8,
            "componentType": 5126,
            "count": 333,
            "max": [
                0.997996,
                0.997996
            ],
            "min": [
                0.00200397,
                0.00200403
            ],
            "type": "VEC2"
        },
        "accessor_75": {
            "bufferView": "bufferView_164",
            "byteOffset": 9072,
            "byteStride": 0,
            "componentType": 5123,
            "count": 14913,
            "type": "SCALAR"
        },
        "accessor_77": {
            "bufferView": "bufferView_165",
            "byteOffset": 145152,
            "byteStride": 12,
            "componentType": 5126,
            "count": 14913,
            "max": [
                26.7365,
                19.5466,
                22.0579
            ],
            "min": [
                -21.7116,
                -38.8723,
                -23.5817
            ],
            "type": "VEC3"
        },
        "accessor_79": {
            "bufferView": "bufferView_165",
            "byteOffset": 324108,
            "byteStride": 12,
            "componentType": 5126,
            "count": 14913,
            "max": [
                0.999923,
                0.999303,
                0.999795
            ],
            "min": [
                -0.999791,
                -0.999585,
                -0.998701
            ],
            "type": "VEC3"
        },
        "accessor_81": {
            "bufferView": "bufferView_165",
            "byteOffset": 503064,
            "byteStride": 8,
            "componentType": 5126,
            "count": 14913,
            "max": [
                0.997996,
                0.997996
            ],
            "min": [
                0.00200397,
                0.00200403
            ],
            "type": "VEC2"
        }
    },
    "animations": {},
    "asset": {
        "generator": "collada2gltf@d78daf1e7950e6c22fe6bec1d07965e8a302e90d",
        "premultipliedAlpha": true,
        "profile": {
            "api": "WebGL",
            "version": "1.0.2"
        },
        "version": 1
    },
    "bufferViews": {
        "bufferView_164": {
            "buffer": "2VAA",
            "byteLength": 68580,
            "byteOffset": 0,
            "target": 34963
        },
        "bufferView_165": {
            "buffer": "2VAA",
            "byteLength": 1097280,
            "byteOffset": 68580,
            "target": 34962
        }
    },
    "buffers": {
        "2VAA": {
            "byteLength": 1165860,
            "type": "arraybuffer",
            "uri": "2VAA.bin"
        }
    },
    "extensionsUsed": ["KHR_materials_common"],
    "images": {
        "2VAA-blue-png": {
            "uri": "textures/2VAA-blue.png"
        },
        "2VAA-green-png": {
            "uri": "textures/2VAA-green.png"
        },
        "2VAA-grey-png": {
            "uri": "textures/2VAA-grey.png"
        },
        "2VAA-lime-png": {
            "uri": "textures/2VAA-lime.png"
        },
        "2VAA-magenta-png": {
            "uri": "textures/2VAA-magenta.png"
        },
        "2VAA-teal-png": {
            "uri": "textures/2VAA-teal.png"
        }
    },
    "materials": {
        "Material-effect": {
            "extensions": {
                "KHR_materials_common": {
                    "technique": "CONSTANT",
                    "values": {
                        "diffuse": "2VAA-grey-tex"
                    }
                }
            }
        },
        "Material_001-effect": {
            "extensions": {
                "KHR_materials_common": {
                    "technique": "CONSTANT",
                    "values": {
                        "diffuse": "2VAA-lime-tex"
                    }
                }
            }
        },
        "Material_002-effect": {
            "extensions": {
                "KHR_materials_common": {
                    "technique": "CONSTANT",
                    "values": {
                        "diffuse": "2VAA-magenta-tex"
                    }
                }
            }
        },
        "Material_003-effect": {
            "extensions": {
                "KHR_materials_common": {
                    "technique": "CONSTANT",
                    "values": {
                        "diffuse": "2VAA-teal-tex"
                    }
                }
            }
        },
        "blue-effect": {
            "extensions": {
                "KHR_materials_common": {
                    "technique": "CONSTANT",
                    "values": {
                        "diffuse": "2VAA-blue-tex"
                    }
                }
            }
        },
        "green-effect": {
            "extensions": {
                "KHR_materials_common": {
                    "technique": "CONSTANT",
                    "values": {
                        "diffuse": "2VAA-green-tex"
                    }
                }
            }
        }
    },
    "meshes": {
        "vmd_mol0_rep0_003-mesh": {
            "name": "vmd_mol0_rep0.003",
            "primitives": [
                {
                    "attributes": {
                        "NORMAL": "accessor_25",
                        "POSITION": "accessor_23",
                        "TEXCOORD_0": "accessor_27"
                    },
                    "indices": "accessor_21",
                    "material": "Material-effect",
                    "mode": 4
                }
            ]
        },
        "vmd_mol0_rep0_006-mesh": {
            "name": "vmd_mol0_rep0.006",
            "primitives": [
                {
                    "attributes": {
                        "NORMAL": "accessor_52",
                        "POSITION": "accessor_50",
                        "TEXCOORD_0": "accessor_54"
                    },
                    "indices": "accessor_48",
                    "material": "green-effect",
                    "mode": 4
                }
            ]
        },
        "vmd_mol0_rep0_007-mesh": {
            "name": "vmd_mol0_rep0.007",
            "primitives": [
                {
                    "attributes": {
                        "NORMAL": "accessor_79",
                        "POSITION": "accessor_77",
                        "TEXCOORD_0": "accessor_81"
                    },
                    "indices": "accessor_75",
                    "material": "Material_001-effect",
                    "mode": 4
                }
            ]
        },
        "vmd_mol0_rep0_011-mesh": {
            "name": "vmd_mol0_rep0.011",
            "primitives": [
                {
                    "attributes": {
                        "NORMAL": "accessor_106",
                        "POSITION": "accessor_104",
                        "TEXCOORD_0": "accessor_108"
                    },
                    "indices": "accessor_102",
                    "material": "Material_003-effect",
                    "mode": 4
                }
            ]
        },
        "vmd_mol0_rep0_015-mesh": {
            "name": "vmd_mol0_rep0.015",
            "primitives": [
                {
                    "attributes": {
                        "NORMAL": "accessor_133",
                        "POSITION": "accessor_131",
                        "TEXCOORD_0": "accessor_135"
                    },
                    "indices": "accessor_129",
                    "material": "blue-effect",
                    "mode": 4
                }
            ]
        },
        "vmd_mol0_rep0_018-mesh": {
            "name": "vmd_mol0_rep0.018",
            "primitives": [
                {
                    "attributes": {
                        "NORMAL": "accessor_160",
                        "POSITION": "accessor_158",
                        "TEXCOORD_0": "accessor_162"
                    },
                    "indices": "accessor_156",
                    "material": "Material_002-effect",
                    "mode": 4
                }
            ]
        }
    },
    "nodes": {
        "blue": {
            "children": [],
            "matrix": [
                1,
                0,
                0,
                0,
                0,
                1,
                0,
                0,
                0,
                0,
                1,
                0,
                0,
                0,
                0,
                1
            ],
            "meshes": [
                "vmd_mol0_rep0_015-mesh"
            ],
            "name": "blue"
        },
        "green": {
            "children": [],
            "matrix": [
                1,
                0,
                0,
                0,
                0,
                1,
                0,
                0,
                0,
                0,
                1,
                0,
                0,
                0,
                0,
                1
            ],
            "meshes": [
                "vmd_mol0_rep0_006-mesh"
            ],
            "name": "green"
        },
        "grey": {
            "children": [],
            "matrix": [
                1,
                0,
                0,
                0,
                0,
                1,
                0,
                0,
                0,
                0,
                1,
                0,
                0,
                0,
                0,
                1
            ],
            "meshes": [
                "vmd_mol0_rep0_003-mesh"
            ],
            "name": "grey"
        },
        "lime": {
            "children": [],
            "matrix": [
                1,
                0,
                0,
                0,
                0,
                1,
                0,
                0,
                0,
                0,
                1,
                0,
                0,
                0,
                0,
                1
            ],
            "meshes": [
                "vmd_mol0_rep0_007-mesh"
            ],
            "name": "lime"
        },
        "magenta": {
            "children": [],
            "matrix": [
                1,
                0,
                0,
                0,
                0,
                1,
                0,
                0,
                0,
                0,
                1,
                0,
                0,
                0,
                0,
                1
            ],
            "meshes": [
                "vmd_mol0_rep0_018-mesh"
            ],
            "name": "magenta"
        },
        "node_6": {
            "children": [
                "grey",
                "green",
                "lime",
                "teal",
                "blue",
                "magenta"
            ],
            "matrix": [
                1,
                0,
                0,
                0,
                0,
                0,
                -1,
                0,
                0,
                1,
                0,
                0,
                0,
                0,
                0,
                1
            ],
            "name": "Y_UP_Transform"
        },
        "teal": {
            "children": [],
            "matrix": [
                1,
                0,
                0,
                0,
                0,
                1,
                0,
                0,
                0,
                0,
                1,
                0,
                0,
                0,
                0,
                1
            ],
            "meshes": [
                "vmd_mol0_rep0_011-mesh"
            ],
            "name": "teal"
        }
    },
    "programs": {},
    "scene": "defaultScene",
    "scenes": {
        "defaultScene": {
            "nodes": [
                "node_6"
            ]
        }
    },
    "shaders": {},
    "skins": {},
    "techniques": {},
    "textures": {
        "2VAA-blue-tex": {
            "format": 6407,
            "internalFormat": 35911,
            "target": 3553,
            "sampler": "sampler_0",
            "type": 5121,
            "source": "2VAA-blue-png"
        },
        "2VAA-green-tex": {
            "format": 6407,
            "internalFormat": 35911,
            "target": 3553,
            "sampler": "sampler_1",
            "type": 5121,
            "source": "2VAA-green-png"
        },
        "2VAA-grey-tex": {
            "format": 6407,
            "internalFormat": 35911,
            "target": 3553,
            "sampler": "sampler_2",
            "type": 5121,
            "source": "2VAA-grey-png"
        },
        "2VAA-lime-tex": {
            "format": 6407,
            "internalFormat": 35911,
            "target": 3553,
            "sampler": "sampler_3",
            "type": 5121,
            "source": "2VAA-lime-png"
        },
        "2VAA-magenta-tex": {
            "format": 6407,
            "internalFormat": 35911,
            "target": 3553,
            "sampler": "sampler_4",
            "type": 5121,
            "source": "2VAA-magenta-png"
        },
        "2VAA-teal-tex": {
            "format": 6407,
            "internalFormat": 35911,
            "target": 3553,
            "sampler": "sampler_5",
            "type": 5121,
            "source": "2VAA-teal-png"
        }
    }
}
