{
    "accessors": {
        "accessor_102": {
            "bufferView": "bufferView_164",
            "byteOffset": 21852,
            "byteStride": 0,
            "componentType": 5123,
            "count": 14661,
            "type": "SCALAR"
        },
        "accessor_104": {
            "bufferView": "bufferView_165",
            "byteOffset": 349632,
            "byteStride": 12,
            "componentType": 5126,
            "count": 14661,
            "max": [
                23.5936,
                23.7878,
                23.8848
            ],
            "min": [
                -21.1344,
                -31.3979,
                -20.5193
            ],
            "type": "VEC3"
        },
        "accessor_106": {
            "bufferView": "bufferView_165",
            "byteOffset": 525564,
            "byteStride": 12,
            "componentType": 5126,
            "count": 14661,
            "max": [
                0.999488,
                0.998873,
                0.996964
            ],
            "min": [
                -0.999902,
                -0.998572,
                -0.998983
            ],
            "type": "VEC3"
        },
        "accessor_108": {
            "bufferView": "bufferView_165",
            "byteOffset": 701496,
            "byteStride": 8,
            "componentType": 5126,
            "count": 14661,
            "max": [
                0.998099,
                0.998099
            ],
            "min": [
                0.00190109,
                0.00190109
            ],
            "type": "VEC2"
        },
        "accessor_129": {
            "bufferView": "bufferView_164",
            "byteOffset": 51174,
            "byteStride": 0,
            "componentType": 5123,
            "count": 7983,
            "type": "SCALAR"
        },
        "accessor_131": {
            "bufferView": "bufferView_165",
            "byteOffset": 818784,
            "byteStride": 12,
            "componentType": 5126,
            "count": 7983,
            "max": [
                24.8034,
                26.2151,
                27.3838
            ],
            "min": [
                -28.3899,
                -32.5812,
                -18.3032
            ],
            "type": "VEC3"
        },
        "accessor_133": {
            "bufferView": "bufferView_165",
            "byteOffset": 914580,
            "byteStride": 12,
            "componentType": 5126,
            "count": 7983,
            "max": [
                0.996371,
                0.999833,
                0.99931
            ],
            "min": [
                -0.996501,
                -0.998957,
                -0.999258
            ],
            "type": "VEC3"
        },
        "accessor_135": {
            "bufferView": "bufferView_165",
            "byteOffset": 1010376,
            "byteStride": 8,
            "componentType": 5126,
            "count": 7983,
            "max": [
                0.998099,
                0.998099
            ],
            "min": [
                0.00190109,
                0.00190109
            ],
            "type": "VEC2"
        },
        "accessor_156": {
            "bufferView": "bufferView_164",
            "byteOffset": 67140,
            "byteStride": 0,
            "componentType": 5123,
            "count": 720,
            "type": "SCALAR"
        },
        "accessor_158": {
            "bufferView": "bufferView_165",
            "byteOffset": 1074240,
            "byteStride": 12,
            "componentType": 5126,
            "count": 720,
            "max": [
                19.7345,
                24.191,
                20.2604
            ],
            "min": [
                -0.185597,
                -27.289,
                2.41937
            ],
            "type": "VEC3"
        },
        "accessor_160": {
            "bufferView": "bufferView_165",
            "byteOffset": 1082880,
            "byteStride": 12,
            "componentType": 5126,
            "count": 720,
            "max": [
                0.9966,
                0.91943,
                0.97564
            ],
            "min": [
                -0.97238,
                -0.940119,
                -0.998954
            ],
            "type": "VEC3"
        },
        "accessor_162": {
            "bufferView": "bufferView_165",
            "byteOffset": 1091520,
            "byteStride": 8,
            "componentType": 5126,
            "count": 720,
            "max": [
                0.998099,
                0.998099
            ],
            "min": [
                0.00190109,
                0.00190109
            ],
            "type": "VEC2"
        },
        "accessor_21": {
            "bufferView": "bufferView_164",
            "byteOffset": 0,
            "byteStride": 0,
            "componentType": 5123,
            "count": 6390,
            "type": "SCALAR"
        },
        "accessor_23": {
            "bufferView": "bufferView_165",
            "byteOffset": 0,
            "byteStride": 12,
            "componentType": 5126,
            "count": 6390,
            "max": [
                14.5808,
                34.0825,
                18.8643
            ],
            "min": [
                -19.1832,
                10.0423,
                -24.7466
            ],
            "type": "VEC3"
        },
        "accessor_25": {
            "bufferView": "bufferView_165",
            "byteOffset": 76680,
            "byteStride": 12,
            "componentType": 5126,
            "count": 6390,
            "max": [
                0.997521,
                0.999697,
                0.997382
            ],
            "min": [
                -0.997814,
                -0.999875,
                -0.999447
            ],
            "type": "VEC3"
        },
        "accessor_27": {
            "bufferView": "bufferView_165",
            "byteOffset": 153360,
            "byteStride": 8,
            "componentType": 5126,
            "count": 6390,
            "max": [
                0.998099,
                0.998099
            ],
            "min": [
                0.00190109,
                0.00190109
            ],
            "type": "VEC2"
        },
        "accessor_48": {
            "bufferView": "bufferView_164",
            "byteOffset": 12780,
            "byteStride": 0,
            "componentType": 5123,
            "count": 4167,
            "type": "SCALAR"
        },
        "accessor_50": {
            "bufferView": "bufferView_165",
            "byteOffset": 204480,
            "byteStride": 12,
            "componentType": 5126,
            "count": 4167,
            "max": [
                18.6437,
                33.8188,
                25.639
            ],
            "min": [
                -25.1195,
                -21.4004,
                -23.826
            ],
            "type": "VEC3"
        },
        "accessor_52": {
            "bufferView": "bufferView_165",
            "byteOffset": 254484,
            "byteStride": 12,
            "componentType": 5126,
            "count": 4167,
            "max": [
                0.995904,
                0.998669,
                0.996861
            ],
            "min": [
                -0.992113,
                -0.999744,
                -0.998168
            ],
            "type": "VEC3"
        },
        "accessor_54": {
            "bufferView": "bufferView_165",
            "byteOffset": 304488,
            "byteStride": 8,
            "componentType": 5126,
            "count": 4167,
            "max": [
                0.998099,
                0.998099
            ],
            "min": [
                0.00190109,
                0.00190109
            ],
            "type": "VEC2"
        },
        "accessor_75": {
            "bufferView": "bufferView_164",
            "byteOffset": 21114,
            "byteStride": 0,
            "componentType": 5123,
            "count": 369,
            "type": "SCALAR"
        },
        "accessor_77": {
            "bufferView": "bufferView_165",
            "byteOffset": 337824,
            "byteStride": 12,
            "componentType": 5126,
            "count": 369,
            "max": [
                19.7345,
                4.44477,
                15.2254
            ],
            "min": [
                -12.5657,
                -23.6198,
                -10.4831
            ],
            "type": "VEC3"
        },
        "accessor_79": {
            "bufferView": "bufferView_165",
            "byteOffset": 342252,
            "byteStride": 12,
            "componentType": 5126,
            "count": 369,
            "max": [
                0.996666,
                0.96816,
                0.997439
            ],
            "min": [
                -0.930251,
                -0.836977,
                -0.98804
            ],
            "type": "VEC3"
        },
        "accessor_81": {
            "bufferView": "bufferView_165",
            "byteOffset": 346680,
            "byteStride": 8,
            "componentType": 5126,
            "count": 369,
            "max": [
                0.998099,
                0.998099
            ],
            "min": [
                0.00190109,
                0.00190109
            ],
            "type": "VEC2"
        }
    },
    "animations": {},
    "asset": {
        "generator": "collada2gltf@cf6371beb0bdc18ba603378d5e40c966da53d385",
        "premultipliedAlpha": true,
        "profile": {
            "api": "WebGL",
            "version": "1.0.2"
        },
        "version": "1.0"
    },
    "bufferViews": {
        "bufferView_164": {
            "buffer": "2VAA",
            "byteLength": 68580,
            "byteOffset": 0,
            "target": 34963
        },
        "bufferView_165": {
            "buffer": "2VAA",
            "byteLength": 1097280,
            "byteOffset": 68580,
            "target": 34962
        }
    },
    "buffers": {
        "2VAA": {
            "byteLength": 1165860,
            "type": "arraybuffer",
            "uri": "2VAA.bin"
        }
    },
    "extensionsUsed": [
        "KHR_materials_common"
    ],
    "images": {
        "_VAA-helix1_png": {
            "name": "_VAA-helix1_png",
            "uri": "textures/2VAA-helix1.png"
        },
        "_VAA-helix2_png": {
            "name": "_VAA-helix2_png",
            "uri": "textures/2VAA-helix2.png"
        },
        "_VAA-sheet1_png": {
            "name": "_VAA-sheet1_png",
            "uri": "textures/2VAA-sheet1.png"
        },
        "_VAA-turn1_png": {
            "name": "_VAA-turn1_png",
            "uri": "textures/2VAA-turn1.png"
        },
        "_VAA-turn2_png": {
            "name": "_VAA-turn2_png",
            "uri": "textures/2VAA-turn2.png"
        },
        "_VAA-turn3_png": {
            "name": "_VAA-turn3_png",
            "uri": "textures/2VAA-turn3.png"
        }
    },
    "materials": {
        "helix1-effect": {
            "extensions": {
                "KHR_materials_common": {
                    "doubleSided": false,
                    "jointCount": 0,
                    "technique": "CONSTANT",
                    "transparent": false,
                    "values": {
                        "diffuse": "texture__VAA-helix1_png"
                    }
                }
            },
            "name": "helix1"
        },
        "helix2-effect": {
            "extensions": {
                "KHR_materials_common": {
                    "doubleSided": false,
                    "jointCount": 0,
                    "technique": "CONSTANT",
                    "transparent": false,
                    "values": {
                        "diffuse": "texture__VAA-helix2_png"
                    }
                }
            },
            "name": "helix2"
        },
        "sheet1-effect": {
            "extensions": {
                "KHR_materials_common": {
                    "doubleSided": false,
                    "jointCount": 0,
                    "technique": "CONSTANT",
                    "transparent": false,
                    "values": {
                        "diffuse": "texture__VAA-sheet1_png"
                    }
                }
            },
            "name": "sheet1"
        },
        "turn1-effect": {
            "extensions": {
                "KHR_materials_common": {
                    "doubleSided": false,
                    "jointCount": 0,
                    "technique": "CONSTANT",
                    "transparent": false,
                    "values": {
                        "diffuse": "texture__VAA-turn1_png"
                    }
                }
            },
            "name": "turn1"
        },
        "turn2-effect": {
            "extensions": {
                "KHR_materials_common": {
                    "doubleSided": false,
                    "jointCount": 0,
                    "technique": "CONSTANT",
                    "transparent": false,
                    "values": {
                        "diffuse": "texture__VAA-turn2_png"
                    }
                }
            },
            "name": "turn2"
        },
        "turn3-effect": {
            "extensions": {
                "KHR_materials_common": {
                    "doubleSided": false,
                    "jointCount": 0,
                    "technique": "CONSTANT",
                    "transparent": false,
                    "values": {
                        "diffuse": "texture__VAA-turn3_png"
                    }
                }
            },
            "name": "turn3"
        }
    },
    "meshes": {
        "vmd_mol1_rep0-mesh": {
            "name": "vmd_mol1_rep0",
            "primitives": [
                {
                    "attributes": {
                        "NORMAL": "accessor_25",
                        "POSITION": "accessor_23",
                        "TEXCOORD_0": "accessor_27"
                    },
                    "indices": "accessor_21",
                    "material": "helix1-effect",
                    "mode": 4
                }
            ]
        },
        "vmd_mol1_rep0_001-mesh": {
            "name": "vmd_mol1_rep0.001",
            "primitives": [
                {
                    "attributes": {
                        "NORMAL": "accessor_52",
                        "POSITION": "accessor_50",
                        "TEXCOORD_0": "accessor_54"
                    },
                    "indices": "accessor_48",
                    "material": "turn2-effect",
                    "mode": 4
                }
            ]
        },
        "vmd_mol1_rep0_002-mesh": {
            "name": "vmd_mol1_rep0.002",
            "primitives": [
                {
                    "attributes": {
                        "NORMAL": "accessor_79",
                        "POSITION": "accessor_77",
                        "TEXCOORD_0": "accessor_81"
                    },
                    "indices": "accessor_75",
                    "material": "turn3-effect",
                    "mode": 4
                }
            ]
        },
        "vmd_mol1_rep0_003-mesh": {
            "name": "vmd_mol1_rep0.003",
            "primitives": [
                {
                    "attributes": {
                        "NORMAL": "accessor_106",
                        "POSITION": "accessor_104",
                        "TEXCOORD_0": "accessor_108"
                    },
                    "indices": "accessor_102",
                    "material": "sheet1-effect",
                    "mode": 4
                }
            ]
        },
        "vmd_mol1_rep0_004-mesh": {
            "name": "vmd_mol1_rep0.004",
            "primitives": [
                {
                    "attributes": {
                        "NORMAL": "accessor_133",
                        "POSITION": "accessor_131",
                        "TEXCOORD_0": "accessor_135"
                    },
                    "indices": "accessor_129",
                    "material": "turn1-effect",
                    "mode": 4
                }
            ]
        },
        "vmd_mol1_rep0_005-mesh": {
            "name": "vmd_mol1_rep0.005",
            "primitives": [
                {
                    "attributes": {
                        "NORMAL": "accessor_160",
                        "POSITION": "accessor_158",
                        "TEXCOORD_0": "accessor_162"
                    },
                    "indices": "accessor_156",
                    "material": "helix2-effect",
                    "mode": 4
                }
            ]
        }
    },
    "nodes": {
        "_VAA": {
            "children": [
                "helix1",
                "turn2",
                "turn3",
                "sheet1",
                "turn1",
                "helix2"
            ],
            "matrix": [
                1,
                0,
                0,
                0,
                0,
                1,
                0,
                0,
                0,
                0,
                1,
                0,
                0,
                0,
                0,
                1
            ],
            "name": "_VAA"
        },
        "helix1": {
            "children": [],
            "matrix": [
                1,
                0,
                0,
                0,
                0,
                1,
                0,
                0,
                0,
                0,
                1,
                0,
                0,
                0,
                0,
                1
            ],
            "meshes": [
                "vmd_mol1_rep0-mesh"
            ],
            "name": "helix1"
        },
        "helix2": {
            "children": [],
            "matrix": [
                1,
                0,
                0,
                0,
                0,
                1,
                0,
                0,
                0,
                0,
                1,
                0,
                0,
                0,
                0,
                1
            ],
            "meshes": [
                "vmd_mol1_rep0_005-mesh"
            ],
            "name": "helix2"
        },
        "node_7": {
            "children": [
                "_VAA"
            ],
            "matrix": [
                1,
                0,
                0,
                0,
                0,
                0,
                -1,
                0,
                0,
                1,
                0,
                0,
                0,
                0,
                0,
                1
            ],
            "name": "Y_UP_Transform"
        },
        "sheet1": {
            "children": [],
            "matrix": [
                1,
                0,
                0,
                0,
                0,
                1,
                0,
                0,
                0,
                0,
                1,
                0,
                0,
                0,
                0,
                1
            ],
            "meshes": [
                "vmd_mol1_rep0_003-mesh"
            ],
            "name": "sheet1"
        },
        "turn1": {
            "children": [],
            "matrix": [
                1,
                0,
                0,
                0,
                0,
                1,
                0,
                0,
                0,
                0,
                1,
                0,
                0,
                0,
                0,
                1
            ],
            "meshes": [
                "vmd_mol1_rep0_004-mesh"
            ],
            "name": "turn1"
        },
        "turn2": {
            "children": [],
            "matrix": [
                1,
                0,
                0,
                0,
                0,
                1,
                0,
                0,
                0,
                0,
                1,
                0,
                0,
                0,
                0,
                1
            ],
            "meshes": [
                "vmd_mol1_rep0_001-mesh"
            ],
            "name": "turn2"
        },
        "turn3": {
            "children": [],
            "matrix": [
                1,
                0,
                0,
                0,
                0,
                1,
                0,
                0,
                0,
                0,
                1,
                0,
                0,
                0,
                0,
                1
            ],
            "meshes": [
                "vmd_mol1_rep0_002-mesh"
            ],
            "name": "turn3"
        }
    },
    "samplers": {
        "sampler_0": {
            "magFilter": 9729,
            "minFilter": 9729,
            "wrapS": 10497,
            "wrapT": 10497
        }
    },
    "scene": "defaultScene",
    "scenes": {
        "defaultScene": {
            "nodes": [
                "node_7"
            ]
        }
    },
    "skins": {},
    "textures": {
        "texture__VAA-helix1_png": {
            "format": 6408,
            "internalFormat": 6408,
            "sampler": "sampler_0",
            "source": "_VAA-helix1_png",
            "target": 3553,
            "type": 5121
        },
        "texture__VAA-helix2_png": {
            "format": 6408,
            "internalFormat": 6408,
            "sampler": "sampler_0",
            "source": "_VAA-helix2_png",
            "target": 3553,
            "type": 5121
        },
        "texture__VAA-sheet1_png": {
            "format": 6408,
            "internalFormat": 6408,
            "sampler": "sampler_0",
            "source": "_VAA-sheet1_png",
            "target": 3553,
            "type": 5121
        },
        "texture__VAA-turn1_png": {
            "format": 6408,
            "internalFormat": 6408,
            "sampler": "sampler_0",
            "source": "_VAA-turn1_png",
            "target": 3553,
            "type": 5121
        },
        "texture__VAA-turn2_png": {
            "format": 6408,
            "internalFormat": 6408,
            "sampler": "sampler_0",
            "source": "_VAA-turn2_png",
            "target": 3553,
            "type": 5121
        },
        "texture__VAA-turn3_png": {
            "format": 6408,
            "internalFormat": 6408,
            "sampler": "sampler_0",
            "source": "_VAA-turn3_png",
            "target": 3553,
            "type": 5121
        }
    }
}